<svg width="274" height="173" viewBox="0 0 274 173" fill="none" xmlns="http://www.w3.org/2000/svg">
<rect width="274" height="173" rx="30" fill="#110D23"/>
<rect x="50.9048" y="30.2586" width="2.70563" height="111.483" fill="#F1F0F0" fill-opacity="0.76"/>
<rect x="50.9048" y="143.319" width="2.62931" height="178.571" transform="rotate(-90 50.9048 143.319)" fill="#FFFDFD" fill-opacity="0.81"/>
<path d="M52.5282 24.9999L57.2145 32.8879H47.8419L52.5282 24.9999Z" fill="#D9D9D9"/>
<path d="M234.887 141.741L226.77 146.295V137.187L234.887 141.741Z" fill="#D9D9D9"/>
<path d="M42.1402 126.342C43.5676 130.641 48.2282 133.026 52.55 131.671C56.8718 130.316 59.2182 125.733 57.7908 121.434C56.3634 117.136 51.7028 114.75 47.381 116.105C43.0593 117.46 40.7129 122.043 42.1402 126.342ZM220.895 67.7714C222.322 72.0699 226.983 74.4558 231.304 73.1006C235.626 71.7453 237.972 67.162 236.545 62.8635C235.118 58.565 230.457 56.179 226.135 57.5343C221.814 58.8896 219.467 63.4729 220.895 67.7714ZM82.2647 77.298L82.7086 75.8384L81.6239 75.5017L80.987 76.4204L82.2647 77.298ZM132.009 92.7404L131.565 94.2L132.2 94.3969L132.775 94.0796L132.009 92.7404ZM178.169 67.2825L178.088 65.7535L177.722 65.7677L177.403 65.9433L178.169 67.2825ZM51.2432 124.766L83.5424 78.1756L80.987 76.4204L48.6878 123.01L51.2432 124.766ZM81.8207 78.7575L131.565 94.2L132.453 91.2809L82.7086 75.8384L81.8207 78.7575ZM132.775 94.0796L178.935 68.6217L177.403 65.9433L131.244 91.4012L132.775 94.0796ZM178.251 68.8114L228.801 66.8464L228.638 63.7884L178.088 65.7535L178.251 68.8114Z" fill="#AEA5D3"/>
<path d="M46.9737 44.8052C46.4026 49.2984 49.5851 53.3784 54.0821 53.9183C58.5792 54.4581 62.6877 51.2533 63.2589 46.7602C63.83 42.267 60.6475 38.187 56.1504 37.6472C51.6534 37.1073 47.5449 40.3121 46.9737 44.8052ZM220.251 38.7466C219.68 43.2398 222.863 47.3198 227.36 47.8596C231.857 48.3995 235.965 45.1947 236.536 40.7016C237.108 36.2084 233.925 32.1284 229.428 31.5885C224.931 31.0487 220.822 34.2535 220.251 38.7466ZM67.3629 43.7214L67.8113 42.2487L67.4696 42.147L67.117 42.2064L67.3629 43.7214ZM123.806 60.5049L123.358 61.9776L124.066 62.1883L124.677 61.7656L123.806 60.5049ZM144.611 46.104L145.92 45.2869L145.071 43.9223L143.74 44.8433L144.611 46.104ZM167.907 83.5391L166.598 84.3562L166.864 84.7823L167.331 84.9676L167.907 83.5391ZM201.999 97.0523L201.422 98.4808L202.782 99.0198L203.396 97.6862L201.999 97.0523ZM55.3622 47.2977L67.6088 45.2363L67.117 42.2064L54.8704 44.2678L55.3622 47.2977ZM66.9144 45.1941L123.358 61.9776L124.254 59.0322L67.8113 42.2487L66.9144 45.1941ZM124.677 61.7656L145.483 47.3647L143.74 44.8433L122.935 59.2442L124.677 61.7656ZM143.303 46.9211L166.598 84.3562L169.216 82.722L145.92 45.2869L143.303 46.9211ZM167.331 84.9676L201.422 98.4808L202.575 95.6238L168.483 82.1107L167.331 84.9676ZM203.396 97.6862L229.791 40.3579L226.996 39.0902L200.601 96.4185L203.396 97.6862Z" fill="#8CB86A"/>
<path d="M47.3873 123.073L81.2077 77.8491L132.885 93.0991L178.881 66.806H230.017V141.741H53.6103L47.3873 123.073Z" fill="url(#paint0_linear_35_151)"/>
<path d="M50.9048 46.5603L63.0801 42.6163L123.145 60.2327L144.249 46.5603L163.729 75.4827L170.493 83.6336L202.149 95.9913L229.206 36.043V66.0172H216.751L202.149 95.9913L170.493 83.6336L159.942 75.4827L132.344 92.3103L82.0195 75.4827L50.9048 119.392V46.5603Z" fill="url(#paint1_linear_35_151)"/>
<defs>
<linearGradient id="paint0_linear_35_151" x1="141.814" y1="103.879" x2="141.814" y2="141.741" gradientUnits="userSpaceOnUse">
<stop stop-color="#AEA5D3" stop-opacity="0.52"/>
<stop offset="1" stop-color="#D9D9D9" stop-opacity="0"/>
</linearGradient>
<linearGradient id="paint1_linear_35_151" x1="145.331" y1="46.5603" x2="145.331" y2="123.862" gradientUnits="userSpaceOnUse">
<stop stop-color="#8CB86A" stop-opacity="0.73"/>
<stop offset="1" stop-color="#D9D9D9" stop-opacity="0"/>
</linearGradient>
</defs>
</svg>
